<svg xmlns="http://www.w3.org/2000/svg" viewBox="0 0 500 500"><g id="freepik--background-complete--inject-85"><path d="M87.59,236.2l-13.12.28-6.66.11c-2.23,0-4.47,0-6.7.06h-.44v-.45L60.61,225v-.5h.5l13.24.06c4.42,0,8.83.12,13.24.17h.28V225c0,1.9-.09,3.79-.13,5.65Zm0,0-.14-5.65c0-1.87-.11-3.71-.13-5.54l.27.27c-4.41.06-8.82.16-13.24.17l-13.24.06.5-.5,0,11.19-.45-.44c2.18,0,4.36,0,6.55.05l6.58.11Z" style="fill:#ebebeb"></path><path d="M72.82,250.31l-13.12.28L53,250.7c-2.23.05-4.47,0-6.7.06H45.9v-.45l-.06-11.19v-.5h.5l13.24.06c4.41,0,8.83.12,13.24.17h.28v.27c0,1.9-.08,3.79-.13,5.65Zm0,0-.14-5.65c-.05-1.87-.11-3.71-.13-5.54l.27.27c-4.41.05-8.83.16-13.24.17l-13.24.06.5-.5-.05,11.19-.45-.45c2.18,0,4.36,0,6.55.06l6.58.11Z" style="fill:#ebebeb"></path><path d="M453.66,250.31l-13.13.28-6.66.11c-2.22.05-4.46,0-6.69.06h-.45v-.45l-.05-11.19v-.5h.5l13.24.06c4.41,0,8.83.12,13.24.17h.27v.27c0,1.9-.08,3.79-.13,5.65Zm0,0-.14-5.65c0-1.87-.12-3.71-.13-5.54l.27.27c-4.41.05-8.83.16-13.24.17l-13.24.06.5-.5-.06,11.19-.44-.45c2.18,0,4.36,0,6.54.06l6.58.11Z" style="fill:#ebebeb"></path><path d="M438.89,51.85l-13.13.27-6.66.12c-2.22,0-4.46,0-6.69,0H412v-.44l0-11.19v-.51h.51l13.24.06c4.41,0,8.82.11,13.24.16h.27v.27c0,1.89-.09,3.78-.13,5.65Zm0,0-.14-5.66c-.05-1.86-.12-3.7-.14-5.53l.28.27c-4.42,0-8.83.16-13.24.16l-13.24.06.5-.49-.06,11.19-.44-.45c2.18,0,4.35,0,6.54.05l6.58.12Z" style="fill:#ebebeb"></path><path d="M453.66,66l-13.13.28-6.66.12c-2.22,0-4.46,0-6.69.05h-.45V66l-.05-11.18v-.51h.5l13.24.06c4.41,0,8.83.11,13.24.16h.27v.27c0,1.89-.08,3.78-.13,5.65Zm0,0-.14-5.65c0-1.86-.12-3.7-.13-5.53l.27.27c-4.41.05-8.83.16-13.24.16l-13.24.06.5-.49L427.62,66l-.44-.44c2.18,0,4.36,0,6.54,0l6.58.12Z" style="fill:#ebebeb"></path><path d="M218.91,135.1l-13.13.28-6.66.11c-2.23,0-4.46,0-6.7.06H192v-.45l0-11.19v-.5h.5l13.24.07c4.42,0,8.83.11,13.24.16h.28v.27c0,1.9-.09,3.79-.13,5.66Zm0,0-.15-5.65c0-1.86-.11-3.71-.13-5.54l.27.28c-4.41,0-8.82.15-13.24.16l-13.24.06.5-.5,0,11.19-.45-.44c2.19,0,4.36,0,6.55.05l6.58.11Z" style="fill:#ebebeb"></path><path d="M233.68,149.21l-13.13.28-6.66.11c-2.22.05-4.46,0-6.69.06h-.45v-.45L206.7,138v-.5h.51l13.24.07c4.41,0,8.82.11,13.24.16H234V138c0,1.9-.09,3.79-.13,5.66Zm0,0-.15-5.65c0-1.86-.11-3.71-.13-5.54l.28.28c-4.42,0-8.83.15-13.24.16l-13.24.06.5-.5-.06,11.19-.44-.44c2.18,0,4.35,0,6.54,0l6.58.11Z" style="fill:#ebebeb"></path><path d="M203.91,149.21l-13.12.28-6.67.11c-2.22.05-4.46,0-6.69.06H177v-.45l0-11.19v-.5h.5l13.24.07c4.41,0,8.83.11,13.24.16h.28V138c0,1.9-.08,3.79-.13,5.66Zm0,0-.14-5.65c-.05-1.86-.11-3.71-.13-5.54l.27.28c-4.41,0-8.83.15-13.24.16l-13.24.06.5-.5-.05,11.19-.45-.44c2.18,0,4.36,0,6.55,0l6.58.11Z" style="fill:#ebebeb"></path><path d="M87.59,51.85l-13.12.27-6.66.12c-2.23,0-4.47,0-6.7,0h-.44v-.44l-.06-11.19v-.51h.5l13.24.06c4.42,0,8.83.11,13.24.16h.28v.27c0,1.89-.09,3.78-.13,5.65Zm0,0-.14-5.66c0-1.86-.11-3.7-.13-5.53l.27.27c-4.41,0-8.82.16-13.24.16l-13.24.06.5-.49,0,11.19-.45-.45c2.18,0,4.36,0,6.55.05l6.58.12Z" style="fill:#ebebeb"></path><rect x="321.85" y="217.76" width="97.79" height="181.87" style="fill:#ebebeb"></rect><rect x="317.12" y="212.74" width="107.26" height="5.02" style="fill:#dbdbdb"></rect><rect x="424.38" y="212.74" width="33.73" height="5.02" style="fill:#ebebeb"></rect><rect x="419.64" y="217.76" width="33.13" height="181.87" style="fill:#dbdbdb"></rect><path d="M409.12,334.87H332.38V291.5h76.74Zm-76.49-.25h76.24V291.75H332.63Z" style="fill:#c7c7c7"></path><rect x="360.04" y="304.18" width="14.94" height="8.59" style="fill:#c7c7c7"></rect><path d="M379.52,312.24H364.33V304.7h15.19ZM364.58,312h14.69v-7H364.58Z" style="fill:#c7c7c7"></path><path d="M409.12,389.35H332.38V346h76.74Zm-76.49-.25h76.24V346.23H332.63Z" style="fill:#c7c7c7"></path><rect x="360.04" y="358.66" width="14.94" height="8.59" style="fill:#c7c7c7"></rect><path d="M379.52,366.72H364.33v-7.54h15.19Zm-14.94-.25h14.69v-7H364.58Z" style="fill:#c7c7c7"></path><rect x="332.5" y="237.14" width="76.49" height="43.12" style="fill:#a6a6a6"></rect><rect x="343.32" y="226.1" width="58.23" height="42.21" style="fill:#c7c7c7"></rect><polygon points="363.89 221.73 343.32 221.73 343.32 226.1 365.07 226.1 363.89 221.73" style="fill:#c7c7c7"></polygon><polygon points="401.39 268.31 343.16 268.31 338.67 229.6 396.9 229.6 401.39 268.31" style="fill:#a6a6a6"></polygon><polygon points="358.78 225.59 338.21 225.59 338.67 229.6 360.43 229.6 358.78 225.59" style="fill:#a6a6a6"></polygon><rect x="295.66" y="237.14" width="76.49" height="43.12" style="fill:#ebebeb"></rect><path d="M372.27,280.39H295.53V237h76.74Zm-76.49-.25H372V237.27H295.78Z" style="fill:#c7c7c7"></path><rect x="323.19" y="249.7" width="14.94" height="8.59" style="fill:#c7c7c7"></rect><path d="M342.67,257.76H327.48v-7.54h15.19Zm-14.94-.25h14.69v-7H327.73Z" style="fill:#c7c7c7"></path><rect x="372.33" y="243.61" width="36.66" height="36.66" style="fill:#dbdbdb"></rect><rect x="52.05" y="113.91" width="131.55" height="7.81" transform="translate(235.66 235.63) rotate(180)" style="fill:#ebebeb"></rect><rect x="165.81" y="121.72" width="7.81" height="25.84" style="fill:#ebebeb"></rect><rect x="165.81" y="121.72" width="7.81" height="7.99" style="fill:#dbdbdb"></rect><rect x="62.03" y="121.72" width="7.81" height="25.84" style="fill:#ebebeb"></rect><rect x="62.03" y="121.72" width="7.81" height="7.99" style="fill:#dbdbdb"></rect><rect x="119.2" y="82.75" width="49.78" height="12.54" transform="translate(233.11 -55.07) rotate(90)" style="fill:#c7c7c7"></rect><rect x="141.35" y="57.93" width="5.47" height="12.54" transform="translate(208.29 -79.89) rotate(90)" style="fill:#dbdbdb"></rect><rect x="143.07" y="68.69" width="2.03" height="12.54" transform="translate(219.05 -69.13) rotate(90)" style="fill:#dbdbdb"></rect><rect x="140.57" y="97.6" width="5.47" height="14.1" transform="translate(247.95 -38.66) rotate(90)" style="fill:#dbdbdb"></rect><rect x="104.4" y="80.49" width="58.07" height="8.76" transform="translate(218.32 -48.56) rotate(90)" style="fill:#dbdbdb"></rect><rect x="122.31" y="69.84" width="22.34" height="5.26" transform="translate(205.94 -61.01) rotate(90)" style="fill:#ebebeb"></rect><rect x="61.42" y="86.01" width="58.07" height="8.76" transform="translate(218.33 91.1) rotate(135.33)" style="fill:#c7c7c7"></rect><rect x="76.25" y="90.73" width="22.34" height="5.26" transform="translate(215.22 98.3) rotate(135.33)" style="fill:#dbdbdb"></rect><rect x="99.57" y="84.43" width="44.11" height="14.88" transform="translate(213.49 -29.76) rotate(90)" style="fill:#a6a6a6"></rect><rect x="119.57" y="99.75" width="4.11" height="14.88" transform="translate(228.82 -14.44) rotate(90)" style="fill:#c7c7c7"></rect><rect x="120.83" y="94.2" width="1.59" height="14.88" transform="translate(223.26 -19.99) rotate(90)" style="fill:#c7c7c7"></rect><rect x="134.77" y="88.05" width="41.46" height="10.28" transform="translate(248.69 -62.3) rotate(90)" style="fill:#a6a6a6"></rect><rect x="153.56" y="102.46" width="3.86" height="10.28" transform="translate(263.09 -47.9) rotate(90)" style="fill:#c7c7c7"></rect><rect x="153.56" y="77.8" width="3.86" height="10.28" transform="translate(238.44 -72.55) rotate(90)" style="fill:#c7c7c7"></rect><rect x="154.75" y="83.13" width="1.5" height="10.28" transform="translate(243.77 -67.23) rotate(90)" style="fill:#c7c7c7"></rect><polygon points="235.31 142.41 291.05 131.17 281.91 92.92 226.17 104.16 235.31 142.41" style="fill:#dbdbdb"></polygon><polygon points="261.27 92.93 280.96 88.96 281.91 92.92 261.08 97.12 261.27 92.93" style="fill:#dbdbdb"></polygon><polygon points="235.37 142.4 291.11 131.16 286.43 95.34 230.69 106.58 235.37 142.4" style="fill:#ebebeb"></polygon><polygon points="266.25 95.6 285.95 91.63 286.43 95.34 265.61 99.54 266.25 95.6" style="fill:#ebebeb"></polygon><polygon points="356.95 177.27 419.79 207.07 438.84 162.89 376 133.1 356.95 177.27" style="fill:#dbdbdb"></polygon><polygon points="418.61 147.79 440.81 158.32 438.84 162.89 415.36 151.76 418.61 147.79" style="fill:#dbdbdb"></polygon><polygon points="357.01 177.31 419.86 207.1 441.5 168.57 378.66 138.78 357.01 177.31" style="fill:#ebebeb"></polygon><polygon points="421.54 154.05 443.75 164.58 441.5 168.57 418.02 157.44 421.54 154.05" style="fill:#ebebeb"></polygon></g><g id="freepik--Floor--inject-85"><polygon points="41.45 399.52 93.59 399.27 145.73 399.19 250 399.02 354.27 399.18 406.41 399.27 458.55 399.52 406.41 399.76 354.27 399.85 250 400.01 145.73 399.85 93.59 399.76 41.45 399.52" style="fill:#263238"></polygon></g><g id="freepik--Shadow--inject-85"><ellipse cx="250" cy="459.05" rx="184.58" ry="13.76" style="fill:#ebebeb"></ellipse></g><g id="freepik--Plant--inject-85"><path d="M411.9,320.43c-6.64-13.65-18.26-20.66-31.35-16.78s-15.12,22.12-5.34,26.73,19.54-8.85,24.7-11.61S411.9,320.43,411.9,320.43Z" style="fill:#E01656"></path><path d="M418.33,356.75c0-1.65-.1-3.29-.16-4.94-.12-3.28-.23-6.56-.35-9.85-.22-6-.87-11.9-3.36-17.44a27,27,0,0,0-10.53-12.13A21.79,21.79,0,0,0,398.4,310a12.88,12.88,0,0,0-6.46-3.55,26.15,26.15,0,0,0-9.21-.23c-.11,0-.11.18,0,.17a22.06,22.06,0,0,1,8.71.62,17.39,17.39,0,0,1,3.51,1.37,15.49,15.49,0,0,1,2,1.28,18.94,18.94,0,0,0-8,.08,18,18,0,0,0-2.77.92,8.51,8.51,0,0,0-2.18-.19,13,13,0,0,0-2.84.41,21.36,21.36,0,0,0-5.39,2.35c-.09,0,0,.2.1.15a19.72,19.72,0,0,1,5.25-2,16.44,16.44,0,0,1,2.7-.4c.51,0,1,0,1.51,0a17.38,17.38,0,0,0-8.47,8.44c0,.1.11.18.15.08a15.92,15.92,0,0,1,10.79-8.65c.29-.07.58-.11.88-.17a10.21,10.21,0,0,0-.14,1.32c-.09.67-.2,1.33-.34,2a32.73,32.73,0,0,1-1.06,4,31.77,31.77,0,0,1-1.59,3.87,18.5,18.5,0,0,1-2.21,3.74.09.09,0,1,0,.14.1c.78-1.23,1.7-2.37,2.42-3.65a27.47,27.47,0,0,0,1.77-3.81,25.14,25.14,0,0,0,1.17-4.09c.14-.73.26-1.47.34-2.22a5.09,5.09,0,0,0,.09-1.35,18.09,18.09,0,0,1,4.65-.1c-.59,3.26-1.21,6.65-3,9.48-.06.09.1.18.15.08a39.82,39.82,0,0,0,2.25-4.65,17.63,17.63,0,0,0,1.12-4.85,21.45,21.45,0,0,1,7.69,2.57,25.38,25.38,0,0,1,10.23,11.2,42.13,42.13,0,0,1,3.79,16.05c.44,7,.53,14,1.23,20.94,0,.45.76.61.85.09A25,25,0,0,0,418.33,356.75Z" style="fill:#263238"></path><path d="M403,311.29a7.35,7.35,0,0,0-1.5-1.39c-.55-.45-1.11-.89-1.69-1.28a12.58,12.58,0,0,0-3.77-1.75c-.11,0-.15.14,0,.17a10,10,0,0,1,3.72,1.83c.55.4,1.09.84,1.6,1.29a9.93,9.93,0,0,0,1.53,1.3A.12.12,0,0,0,403,311.29Z" style="fill:#263238"></path><path d="M381.8,316.24a38.74,38.74,0,0,0-3.05,4,24.12,24.12,0,0,0-2.26,4.48c0,.05.05.08.08,0a53.15,53.15,0,0,1,5.35-8.43C382,316.27,381.87,316.15,381.8,316.24Z" style="fill:#263238"></path><path d="M396.08,314.89a9.79,9.79,0,0,1-.75,2.47,15.87,15.87,0,0,1-1.27,2.18.05.05,0,0,0,.08.06,8.92,8.92,0,0,0,2.11-4.67C396.26,314.82,396.1,314.78,396.08,314.89Z" style="fill:#263238"></path><path d="M417.4,320.76s9.4-11.81,27.54-7.62c17.24,4,25.2,35.6,7.78,39.38S438.37,327,432,322.08C427.36,318.43,420.66,319.21,417.4,320.76Z" style="fill:#E01656"></path><path d="M459,330.4a35.9,35.9,0,0,0-3.74-2.86,16.47,16.47,0,0,0-4-2,23.14,23.14,0,0,0-7.85-7.41l.54,0a27.86,27.86,0,0,1,2.89,0,16.2,16.2,0,0,1,5.59,1.4c.11,0,.18-.12.08-.16a25.53,25.53,0,0,0-5.59-1.68,15.84,15.84,0,0,0-2.83-.25q-.76,0-1.53.09l-.29,0a24.14,24.14,0,0,0-5.23-1.93c.17,0,.34-.1.51-.13a24.17,24.17,0,0,1,2.68-.45,21,21,0,0,1,5.43.09c.11,0,.14-.16,0-.17a33.46,33.46,0,0,0-5.48-.23,23,23,0,0,0-4.57.6,24.16,24.16,0,0,0-3.3-.38c-6.33-.27-13.23,2.1-17.12,7.29s-4.66,12.15-5.35,18.43a140.87,140.87,0,0,0-.69,26.37c0,.52.77.42.79-.07.23-7.46.5-14.91,1.21-22.34.33-3.44.7-6.9,1.27-10.31a30.55,30.55,0,0,1,2.5-8.48,15.49,15.49,0,0,1,6.12-6.58,20.61,20.61,0,0,1,8.68-2.67,23.48,23.48,0,0,1,8.14.76,5.1,5.1,0,0,0-.05,1.61,8.92,8.92,0,0,0,.4,2,9.45,9.45,0,0,0,.76,1.76c.33.62.75,1.18,1.13,1.77.06.1.21,0,.14-.1a8.3,8.3,0,0,1-1.41-3.57,14.35,14.35,0,0,1-.21-1.85c0-.47,0-.94,0-1.4a23.76,23.76,0,0,1,7.92,4.18c.44.35.87.72,1.28,1.11a8.52,8.52,0,0,0-1.53,1.89,18.4,18.4,0,0,0-1.62,2.87,24.5,24.5,0,0,0-1.67,6.31.09.09,0,0,0,.17,0,18.24,18.24,0,0,1,2.06-6,23.1,23.1,0,0,1,1.61-2.65c.3-.44.62-.87.95-1.29.18-.23.37-.45.54-.7a25.06,25.06,0,0,1,5.15,7.25h0a12.49,12.49,0,0,0-2.12,3.06,27.23,27.23,0,0,0-1.7,3.63,60.94,60.94,0,0,0-2.17,7.4.09.09,0,0,0,.17,0,31.18,31.18,0,0,1,2.58-7.29q.81-1.69,1.71-3.36a30.29,30.29,0,0,0,1.71-3.17,23.37,23.37,0,0,1,2.07,8.4c0,.12.18.1.17,0a29.31,29.31,0,0,0-4.07-12.9c1.11.48,2.22.93,3.29,1.51a18.3,18.3,0,0,1,3.77,2.65C458.92,330.61,459,330.48,459,330.4Z" style="fill:#263238"></path><path d="M445.65,331.07c-.55,1.79-1.23,3.53-1.72,5.34a20.54,20.54,0,0,0-.8,5.34c0,.05.07.05.08,0a51.81,51.81,0,0,1,2.6-10.62A.09.09,0,1,0,445.65,331.07Z" style="fill:#263238"></path><path d="M457.14,326.63a10.22,10.22,0,0,0-2.4-1.72,18.35,18.35,0,0,0-2.78-1c-.11,0-.15.15,0,.17a10.9,10.9,0,0,1,2.67,1.1,20.21,20.21,0,0,1,2.47,1.52A.06.06,0,0,0,457.14,326.63Z" style="fill:#263238"></path><path d="M426.33,305s1.74-21.22,17.52-28.1c13.17-5.74,20.71,9.06,11.4,18.13C447.71,302.34,435.63,299,426.33,305Z" style="fill:#E01656"></path><path d="M452.33,281a65.25,65.25,0,0,0-7,3.33,51.8,51.8,0,0,0-5.44,3.61c.26-.54.49-1.1.75-1.62.41-.82.85-1.62,1.34-2.4a22.4,22.4,0,0,1,3.48-4.4c.08-.08-.05-.2-.13-.12a35.31,35.31,0,0,0-3.66,4.26,24.72,24.72,0,0,0-1.5,2.4,10,10,0,0,0-1.06,2.44,1.09,1.09,0,0,1-.17.13,52,52,0,0,0-7.54,7.37c.05-.2.09-.41.14-.6q.45-1.56,1-3.09a26.53,26.53,0,0,1,2.85-6.19c.06-.09-.09-.18-.15-.08a49.77,49.77,0,0,0-3.3,6,21.89,21.89,0,0,0-1.09,3.13,13.82,13.82,0,0,0-.52,2.13c-.68.87-1.36,1.75-2,2.66-6.77,9.64-10.17,21.31-11,33a101.18,101.18,0,0,0-.17,10.45,65.75,65.75,0,0,0,.92,10.49.19.19,0,0,0,.38-.06c-.07-3.06-.39-6.12-.45-9.19a91.32,91.32,0,0,1,.3-9.21,85.47,85.47,0,0,1,3.44-18.06,64.88,64.88,0,0,1,8-17c.66-.13,1.32-.31,2-.48s1.57-.4,2.36-.62a23.92,23.92,0,0,0,4.4-1.61c.09-.05,0-.21-.09-.15a14.12,14.12,0,0,1-4.47,1.54c-1.23.24-2.51.41-3.75.69a57.2,57.2,0,0,1,3.67-4.82,27.7,27.7,0,0,0,9-.67,37.47,37.47,0,0,0,4.59-1.43c1.58-.61,3.08-1.39,4.64-2.05a.09.09,0,1,0-.08-.15,26.57,26.57,0,0,1-9.09,3,57.94,57.94,0,0,1-8.52.7c1.12-1.29,2.28-2.54,3.52-3.72,4.14-3.94,9.06-7.57,14.52-9.46C452.49,281.12,452.43,281,452.33,281Z" style="fill:#263238"></path><path d="M439.49,281.06a23.92,23.92,0,0,0-1.93,2.83,14.45,14.45,0,0,0-1.39,3.29s0,.06.06,0c.53-1,1-2.12,1.5-3.15a15.64,15.64,0,0,1,1.89-2.87C439.69,281.09,439.56,281,439.49,281.06Z" style="fill:#263238"></path><path d="M454.16,288.12a15.76,15.76,0,0,1-3.23,1.35,28.67,28.67,0,0,1-3.3.89,0,0,0,0,0,0,.09,16,16,0,0,0,3.41-.75,28.48,28.48,0,0,0,3.19-1.43C454.35,288.22,454.26,288.07,454.16,288.12Z" style="fill:#263238"></path><path d="M414.07,301.16c-.1.92-2.39-7.7-15.73-15.35-12.12-7-26.58-25-14.7-36.46C393.23,240.13,418.49,260.23,414.07,301.16Z" style="fill:#E01656"></path><path d="M423.25,350.6a236,236,0,0,0-2.12-26.83,121.44,121.44,0,0,0-5.63-24c-1-2.8-2.13-5.56-3.36-8.28a18.69,18.69,0,0,0-.06-3.18c-.06-1.35-.18-2.71-.31-4.06s-.26-2.71-.42-4.06-.45-2.7-.51-4.05c0-.12-.19-.1-.17,0a28,28,0,0,1,.48,4.29c.11,1.31.18,2.62.22,3.93s0,2.63,0,3.94c0,.47,0,1-.05,1.48-1.25-2.65-2.6-5.26-4.05-7.8.9-5.53-.27-11.31-1.4-16.72,0-.11-.19-.06-.17.05a46.57,46.57,0,0,1,.88,8.57c.05,2.27-.05,4.55-.06,6.82-.32-.55-.64-1.09-1-1.63q-2.59-4.24-5.54-8.28a13,13,0,0,0-.13-3.94,30.49,30.49,0,0,0-1-4.31,43.68,43.68,0,0,0-1.47-4.16c-.58-1.41-1.35-2.73-1.91-4.14a.09.09,0,1,0-.16.07,20.16,20.16,0,0,1,1.67,4.18,37.29,37.29,0,0,1,1.1,4.15c.28,1.41.51,2.82.71,4.24.13.93.21,1.91.37,2.85a102.93,102.93,0,0,0-9.34-10.87c-.08-.08-.19.05-.12.13a122.47,122.47,0,0,1,13.56,18.45l.43.74c-.73-.46-1.58-.82-2.27-1.21q-1.93-1.08-3.89-2.13l-3.78-2.07c-.64-.36-1.28-.73-1.94-1.07a15.5,15.5,0,0,1-2.26-1.25c-.1-.08-.21.08-.1.13,1.28.71,2.42,1.76,3.66,2.55s2.51,1.56,3.8,2.28c2.38,1.33,4.95,2.28,7.29,3.65,1.62,2.83,3.11,5.74,4.49,8.7q-2.13-1.36-4.34-2.59-1.41-.79-2.85-1.56a13.36,13.36,0,0,1-2.69-1.62.09.09,0,0,0-.12.13,25.69,25.69,0,0,0,5.13,3.56c1.71,1,3.45,2,5.23,2.84,1.42,3.13,2.72,6.31,3.86,9.55,5.61,15.9,7.68,32.78,8.66,49.54.3,5,.45,10,.51,15s-.2,10-.19,15c0,.14.24.18.26,0,.6-4.43.71-8.94.9-13.41S423.35,355.14,423.25,350.6Z" style="fill:#263238"></path><path d="M399,278.62a66.06,66.06,0,0,1-7.09-3.67,76.32,76.32,0,0,1-6.73-4.27s-.08,0,0,.06a56.65,56.65,0,0,0,6.46,4.52,65.57,65.57,0,0,0,7.32,3.51C399,278.81,399.11,278.66,399,278.62Z" style="fill:#263238"></path><path d="M402.88,260.64c-.2-.77-.44-1.53-.71-2.29a.08.08,0,0,0,0-.09c-.17-.43-.35-.86-.52-1.28a1.26,1.26,0,0,0-.07-.16,2.44,2.44,0,0,0-.1-.24s0,0,0,0,.09.3.13.44a2.33,2.33,0,0,0,.07.25,63.62,63.62,0,0,1,2,9.06c0,.09.16.1.16,0A31.43,31.43,0,0,0,402.88,260.64Z" style="fill:#263238"></path><polygon points="437.35 353.82 436.39 365.1 433.48 399.52 402.26 399.52 399.35 365.1 398.4 353.82 437.35 353.82" style="fill:#37474f"></polygon><polygon points="437.35 353.82 436.39 365.1 399.35 365.1 398.4 353.82 437.35 353.82" style="fill:#263238"></polygon><rect x="395.34" y="349.29" width="45.07" height="10.82" style="fill:#37474f"></rect></g><g id="freepik--File--inject-85"><path d="M232.55,275.28l-.41-.62c.49-.33,1-.66,1.43-1l.43.61C233.54,274.61,233.05,275,232.55,275.28Zm5.33-4.24-.52-.53a28.43,28.43,0,0,0,2.61-2.95l.59.45A26,26,0,0,1,237.88,271Zm5.29-7.37-.68-.32a22.45,22.45,0,0,0,1.33-3.69l.73.19A24.07,24.07,0,0,1,243.17,263.67Zm2.24-8.8-.74-.07c.11-1.23.17-2.53.17-4h.75C245.59,252.3,245.53,253.62,245.41,254.87Zm-.72-9c-.06-1-.12-2-.19-3l-.06-1,.75-.05.06,1c.07,1,.13,2,.19,3Zm-.5-9c0-.81,0-1.61,0-2.42,0-.53,0-1.07,0-1.6h.75c0,.53,0,1.06,0,1.59,0,.8,0,1.6,0,2.39Zm1.1-9-.74-.1a37.7,37.7,0,0,1,.73-4l.73.18A38.32,38.32,0,0,0,245.29,227.92Zm41.43-3.77a9.09,9.09,0,0,1-1.15-.07l.08-.74a9.87,9.87,0,0,0,1.07.06h0a8.44,8.44,0,0,0,2.7-.44l.24.71a9,9,0,0,1-2.94.48Zm-6-1.85a17.31,17.31,0,0,1-3.05-2.72l.56-.5a16.17,16.17,0,0,0,2.91,2.6Zm13.06-1.68-.61-.44a7.67,7.67,0,0,0,1.38-3.51l.74.09A8.49,8.49,0,0,1,293.82,220.62Zm-46.31-1.3-.69-.28a31.36,31.36,0,0,1,1.76-3.64l.65.37A32.33,32.33,0,0,0,247.51,219.32Zm27.17-3.78c-.69-1.1-1.36-2.28-2-3.52l.67-.34a38.86,38.86,0,0,0,1.95,3.45ZM293.83,212a12,12,0,0,0-2.17-3.19l.55-.51a12.64,12.64,0,0,1,2.3,3.39ZM252,211.72l-.58-.48a27.69,27.69,0,0,1,2.81-2.92l.5.56A26.17,26.17,0,0,0,252,211.72Zm18.65-4.32c-.47-1.24-.9-2.53-1.27-3.83l.72-.21c.37,1.28.79,2.55,1.25,3.77Zm-12-1.46-.39-.64a27.71,27.71,0,0,1,3.59-1.86l.3.69A27.56,27.56,0,0,0,258.72,205.94Zm29.12-.17c-.34-.21-.69-.41-1-.61-.8-.43-1.63-.82-2.47-1.17l.29-.69c.86.36,1.71.76,2.53,1.2l1.09.63Zm-20.94-3.18-.17-.73a29.86,29.86,0,0,1,4-.64l.07.74A30.3,30.3,0,0,0,266.9,202.59Zm12.72-.08a28.44,28.44,0,0,0-3.9-.58l.06-.75a30.07,30.07,0,0,1,4,.6Zm-11.39-3.83c-.26-1.3-.47-2.64-.63-4l.74-.09c.16,1.31.37,2.63.63,3.92Zm-1-9c0-.62,0-1.24,0-1.87s0-1.43,0-2.16l.75,0c0,.72,0,1.43,0,2.13s0,1.23,0,1.84Zm1.17-8.94-.74-.1c.17-1.33.4-2.67.67-4l.73.15C268.78,178.11,268.56,179.43,268.38,180.75Zm1.88-8.73-.72-.22c.39-1.28.83-2.56,1.31-3.81l.7.27C271.08,169.49,270.65,170.76,270.26,172Zm3.29-8.3-.68-.33c.6-1.2,1.24-2.4,1.91-3.55l.65.38C274.76,161.36,274.13,162.53,273.55,163.72Zm4.56-7.68-.61-.43c.75-1.08,1.57-2.16,2.41-3.22l.59.47C279.66,153.91,278.86,155,278.11,156Zm5.67-6.89-.53-.53c.93-.94,1.94-1.86,3-2.72l.48.58A39.34,39.34,0,0,0,283.78,149.15Zm6.93-5.59-.41-.63c1.11-.72,2.28-1.4,3.47-2l.36.66C293,142.18,291.8,142.85,290.71,143.56Zm7.9-4.13-.29-.69c1.21-.51,2.48-1,3.77-1.42l.24.71C301.06,138.46,299.81,138.93,298.61,139.43Zm8.48-2.82-.18-.72c1.27-.33,2.59-.63,3.92-.89l.14.73C309.66,136,308.35,136.29,307.09,136.61Zm8.8-1.7-.1-.74c1.3-.18,2.64-.33,4-.46l.07.75C318.51,134.58,317.18,134.73,315.89,134.91Zm21.85-.35s-1.49-.2-4-.34l.05-.75c2.49.14,4,.34,4,.34Zm-12.92-.42,0-.75c1.23,0,2.47-.07,3.7-.07h.32v.75h-.31C327.27,134.07,326,134.1,324.82,134.14Z" style="fill:#263238"></path><path d="M339.45,90.12c-10-12.36-11.36-22.63-13.36-26.71-2.65-5.43-14.4-8.14-22.29-13C298.14,47,292,39.37,290.65,40.87c-.71.8,2.16,5.38,2.16,5.38s-1.73,2.49,3.09,6.47c0,0-.75,4.53,5.05,7.64,0,0-1.8,3.33,2.37,6.39,0,0-1.57,3.43,4.26,5.64,0,0-1.19,4.31,3.63,6.27A5.11,5.11,0,0,0,313,82.35c3.46,3.42,13.07,6.15,19.72,12.25,4.81,4.4,4.38,8.94,5.27,9.14a2.15,2.15,0,0,0,2.66-1.45S340.72,91.68,339.45,90.12Z" style="fill:#ebebeb"></path><path d="M338.52,93.31a8.32,8.32,0,0,0-.38-1.9,4.79,4.79,0,0,0-.91-1.45c-.81-.92-1.77-1.72-2.61-2.62a37.19,37.19,0,0,1-7.71-12.58c-.85-2.37-1.34-4.86-2.31-7.19A13.62,13.62,0,0,0,320.4,62a30,30,0,0,0-6-3.47c-2.26-1-4.54-2-6.73-3.21A56,56,0,0,1,295,45.75c-.46-.47-.92-.93-1.37-1.42-.05-.06-.13,0-.08.08a50.78,50.78,0,0,0,5.6,5.57,53.63,53.63,0,0,0,6.42,4.6,62.16,62.16,0,0,0,6.74,3.47,51.36,51.36,0,0,1,6.32,3.21,14.25,14.25,0,0,1,4.86,4.87c1.25,2.22,1.77,4.74,2.52,7.14A38,38,0,0,0,332.91,86c.78.94,1.61,1.85,2.48,2.71a8.65,8.65,0,0,1,2.35,2.83,10.06,10.06,0,0,1,.41,2c.11.74.21,1.47.32,2.21.22,1.44.41,2.89.66,4.32.13.73.25,1.46.39,2.19,0,0,.07,0,.06,0C339.33,99.27,338.91,96.29,338.52,93.31Z" style="fill:#c7c7c7"></path><path d="M318.93,63.14c-3.13-1.07-6.26-2.15-9.33-3.39a71.25,71.25,0,0,1-8.84-4.16,37.11,37.11,0,0,1-4.66-3.07s-.07,0,0,0A40.78,40.78,0,0,0,300,55.41q2.12,1.32,4.34,2.41a77,77,0,0,0,9.24,3.63c1.77.6,3.55,1.17,5.33,1.73A0,0,0,0,0,318.93,63.14Z" style="fill:#c7c7c7"></path><path d="M322.67,68.31a43,43,0,0,0-8-3.59c-2.78-1-5.62-1.76-8.4-2.72a49.81,49.81,0,0,1-4.72-1.8s-.06,0,0,0c1.31.63,2.64,1.22,4,1.73s2.79,1,4.2,1.44c2.81.9,5.64,1.76,8.4,2.82a33.52,33.52,0,0,1,4.49,2.13S322.7,68.33,322.67,68.31Z" style="fill:#c7c7c7"></path><path d="M323.75,69.35s0,0,0,.05A0,0,0,1,0,323.75,69.35Z" style="fill:#c7c7c7"></path><path d="M325.43,74.77a30,30,0,0,0-7.58-4.18,52,52,0,0,0-8.76-2.37c-1.73-.34-3.47-.61-5.22-.87,0,0,0,.05,0,.05,3,.61,6,1.19,9,2a49.32,49.32,0,0,1,8.33,2.93,25.47,25.47,0,0,1,4.21,2.49S325.44,74.77,325.43,74.77Z" style="fill:#c7c7c7"></path><path d="M327.27,78.11c-1.12-.71-2.25-1.42-3.4-2.09a25.87,25.87,0,0,0-3.52-1.79,18.14,18.14,0,0,0-3.76-1c-1.36-.22-2.74-.33-4.11-.47-1.55-.16-3.1-.3-4.65-.45a0,0,0,1,0,0,0l4.1.56c1.33.18,2.67.33,4,.53a22,22,0,0,1,3.85.91,33.13,33.13,0,0,1,3.68,1.58c1.31.64,2.56,1.43,3.81,2.19C327.27,78.14,327.28,78.12,327.27,78.11Z" style="fill:#c7c7c7"></path><path d="M332.27,86.4c-1.29-.76-2.57-1.53-3.82-2.35s-2.43-1.72-3.71-2.46a22.84,22.84,0,0,0-8.18-2.72,34.46,34.46,0,0,0-4.87-.34s0,0,0,0A41.77,41.77,0,0,1,320.22,80a22.36,22.36,0,0,1,4,1.6c1.3.68,2.5,1.53,3.73,2.32,1.39.9,2.82,1.75,4.29,2.51C332.27,86.43,332.28,86.4,332.27,86.4Z" style="fill:#c7c7c7"></path><path d="M331.27,84.81A37.45,37.45,0,0,0,326,81a27.67,27.67,0,0,0-6-2.72c-1.17-.37-2.37-.67-3.57-.93,0,0,0,.05,0,.06a35.41,35.41,0,0,1,6.16,2.15,38.63,38.63,0,0,1,5.68,3,31.38,31.38,0,0,1,3,2.26S331.28,84.82,331.27,84.81Z" style="fill:#c7c7c7"></path><path d="M315.42,66.27c-3.2-1.76-6.93-2-10.45-2.68a30.8,30.8,0,0,1-3-.71,0,0,0,0,0,0,0c3.4,1.29,7.1,1.28,10.58,2.24a15,15,0,0,1,2.9,1.12S315.43,66.27,315.42,66.27Z" style="fill:#c7c7c7"></path><path d="M320.5,63.59A72.27,72.27,0,0,0,308.29,58c-1.2-.41-2.4-.77-3.6-1.14,0,0-.05,0,0,.06,2.16.66,4.28,1.45,6.38,2.28s4.08,1.69,6.07,2.66c1.14.55,2.25,1.12,3.36,1.73C320.5,63.61,320.51,63.59,320.5,63.59Z" style="fill:#c7c7c7"></path><path d="M326.44,76.8a21.46,21.46,0,0,0-4-2.56,23.28,23.28,0,0,0-4.5-1.63s-.05,0,0,.06a24.7,24.7,0,0,1,8.53,4.15S326.45,76.81,326.44,76.8Z" style="fill:#c7c7c7"></path><path d="M337.21,95.28a20.21,20.21,0,0,0-5-5.06,37.06,37.06,0,0,0-6.37-3.54c-1.26-.56-2.55-1.08-3.84-1.59,0,0-.06,0,0,0a61.18,61.18,0,0,1,6.55,3.1,32.51,32.51,0,0,1,5.88,4.05,18.93,18.93,0,0,1,2.72,3S337.23,95.3,337.21,95.28Z" style="fill:#c7c7c7"></path><path d="M388.14,106.06c15.61-3.08,23.22-10.1,27.36-12,5.52-2.47,16.28,3,25.44,4.3,6.58,1,16.17-.91,16.22,1.08,0,1.08-5.1,2.75-5.1,2.75s-.27,3-6.51,3c0,0-2.33,4-8.78,2.64,0,0-.75,3.71-5.91,3.38,0,0-1,3.65-6.89,1.61,0,0-1.85,4.08-6.8,2.49a5.13,5.13,0,0,1-3.74,1.69c-4.84.41-14-3.64-23-3.22-6.5.31-9.08,4.06-9.89,3.65a2.16,2.16,0,0,1-1.12-2.82S386.16,106.44,388.14,106.06Z" style="fill:#ebebeb"></path><path d="M386.81,109.11a8.34,8.34,0,0,1,1.5-1.22,4.78,4.78,0,0,1,1.64-.53c1.21-.19,2.46-.19,3.68-.34a37.34,37.34,0,0,0,14-4.73c2.17-1.27,4.15-2.87,6.38-4a13.53,13.53,0,0,1,6.77-1.57,29.17,29.17,0,0,1,6.82,1.17c2.41.64,4.78,1.35,7.22,1.84a56.16,56.16,0,0,0,15.9.76c.66-.06,1.31-.12,2-.21.08,0,.09.1,0,.12a51.83,51.83,0,0,1-7.87.69,53.15,53.15,0,0,1-7.87-.59,62.22,62.22,0,0,1-7.4-1.64,49.72,49.72,0,0,0-6.91-1.58,14.1,14.1,0,0,0-6.85.62c-2.38.91-4.39,2.51-6.51,3.87a37.71,37.71,0,0,1-13.46,5.35c-1.2.23-2.42.39-3.63.5a8.61,8.61,0,0,0-3.63.66,10,10,0,0,0-1.6,1.3L385.27,111c-1.09,1-2.16,2-3.27,2.9l-1.7,1.43s-.06,0,0,0C382.37,113.17,384.6,111.15,386.81,109.11Z" style="fill:#c7c7c7"></path><path d="M421.18,98.48c3.09,1.18,6.18,2.36,9.34,3.37a70.21,70.21,0,0,0,9.45,2.47,38.2,38.2,0,0,0,5.54.63s0,0,0,0a41.63,41.63,0,0,1-4.86-.34c-1.64-.23-3.27-.54-4.88-.93a75.89,75.89,0,0,1-9.42-3.13c-1.74-.68-3.47-1.37-5.2-2.09C421.14,98.5,421.16,98.47,421.18,98.48Z" style="fill:#c7c7c7"></path><path d="M415,100.06a43.23,43.23,0,0,1,8.43,2.35c2.76,1,5.44,2.25,8.2,3.29,1.57.6,3.15,1.19,4.78,1.64,0,0,0,.06,0,0-1.42-.35-2.82-.75-4.19-1.23s-2.77-1-4.15-1.59c-2.73-1.1-5.46-2.26-8.26-3.21a33.29,33.29,0,0,0-4.81-1.24S415,100.05,415,100.06Z" style="fill:#c7c7c7"></path><path d="M413.5,100.16s0,.06,0,0S413.47,100.15,413.5,100.16Z" style="fill:#c7c7c7"></path><path d="M408.74,103.25a30.06,30.06,0,0,1,8.5,1.64,52.55,52.55,0,0,1,8.25,3.79c1.54.85,3.05,1.76,4.56,2.67,0,0,0,.07,0,.05-2.7-1.46-5.4-3-8.18-4.27a49.87,49.87,0,0,0-8.27-3.09,25.58,25.58,0,0,0-4.83-.77S408.73,103.25,408.74,103.25Z" style="fill:#c7c7c7"></path><path d="M405.19,104.64c1.31.17,2.63.34,3.94.57a25.39,25.39,0,0,1,3.86.88,18.26,18.26,0,0,1,3.53,1.64c1.18.71,2.31,1.5,3.45,2.26,1.3.87,2.58,1.76,3.87,2.64,0,0,0,.07,0,.05l-3.51-2.2c-1.13-.72-2.26-1.45-3.41-2.15a21.27,21.27,0,0,0-3.54-1.77,33.92,33.92,0,0,0-3.84-1.15c-1.42-.34-2.88-.53-4.33-.75C405.17,104.66,405.18,104.64,405.19,104.64Z" style="fill:#c7c7c7"></path><path d="M396,107.8c1.48.25,2.95.47,4.43.64s3,.24,4.44.49a23.06,23.06,0,0,1,8,3.15,33.55,33.55,0,0,1,3.95,2.85s0,.06,0,0a41,41,0,0,0-7.45-4.37,21.84,21.84,0,0,0-4.1-1.34c-1.44-.31-2.9-.43-4.36-.61-1.64-.2-3.28-.46-4.9-.82C396,107.82,396,107.8,396,107.8Z" style="fill:#c7c7c7"></path><path d="M397.82,107.22a37.41,37.41,0,0,1,6.52.43,27.58,27.58,0,0,1,6.31,1.73A34,34,0,0,1,414,111s0,.06,0,0a35.74,35.74,0,0,0-6.12-2.29,38.52,38.52,0,0,0-6.3-1.31,30.78,30.78,0,0,0-3.72-.17A0,0,0,0,1,397.82,107.22Z" style="fill:#c7c7c7"></path><path d="M421.87,103.13c3.59.7,6.63,2.86,9.75,4.63a28.66,28.66,0,0,0,2.77,1.39s0,.06,0,0c-3.45-1.18-6.28-3.56-9.58-5a14.48,14.48,0,0,0-2.93-1S421.86,103.13,421.87,103.13Z" style="fill:#c7c7c7"></path><path d="M419.69,97.82a73.31,73.31,0,0,1,12.94,3.54c1.18.45,2.34.94,3.49,1.43,0,0,0,.07,0,0-2.08-.87-4.22-1.62-6.37-2.33s-4.22-1.32-6.36-1.85c-1.22-.3-2.45-.58-3.69-.82C419.67,97.84,419.67,97.82,419.69,97.82Z" style="fill:#c7c7c7"></path><path d="M406.66,104.16a22.22,22.22,0,0,1,4.74.61,23.31,23.31,0,0,1,4.5,1.64s0,.06,0,0a24.87,24.87,0,0,0-9.21-2.28S406.65,104.16,406.66,104.16Z" style="fill:#c7c7c7"></path><path d="M386.56,111.46a20.23,20.23,0,0,1,7.05-.71,36.25,36.25,0,0,1,7.15,1.36c1.34.38,2.66.81,4,1.24,0,0,0,.06,0,.05a62.69,62.69,0,0,0-7-1.81,32.72,32.72,0,0,0-7.12-.65,18.13,18.13,0,0,0-4,.57S386.53,111.47,386.56,111.46Z" style="fill:#c7c7c7"></path><polygon points="374.21 151.65 322.32 135.47 343.09 68.86 381.62 80.87 391.02 97.73 374.21 151.65" style="fill:#E01656"></polygon><polygon points="374.21 151.65 322.32 135.47 343.09 68.86 381.62 80.87 391.02 97.73 374.21 151.65" style="fill:#fff;opacity:0.4"></polygon><polygon points="381.62 80.87 391.02 97.73 377.66 93.56 381.62 80.87" style="fill:#E01656"></polygon><rect x="343.71" y="86.07" width="30.22" height="1.79" transform="translate(675.5 276.78) rotate(-162.69)" style="fill:#fff"></rect><rect x="342.37" y="90.39" width="30.22" height="1.79" transform="translate(671.59 284.82) rotate(-162.69)" style="fill:#fff"></rect><rect x="341.02" y="94.7" width="30.22" height="1.79" transform="translate(667.67 292.86) rotate(-162.69)" style="fill:#fff"></rect><rect x="339.36" y="101.11" width="44.28" height="1.79" transform="translate(676.25 306.99) rotate(-162.69)" style="fill:#fff"></rect><rect x="338.01" y="105.43" width="44.28" height="1.79" transform="translate(672.33 315.03) rotate(-162.68)" style="fill:#fff"></rect><rect x="336.67" y="109.75" width="44.28" height="1.79" transform="translate(668.42 323.06) rotate(-162.69)" style="fill:#fff"></rect><rect x="335.32" y="114.07" width="44.28" height="1.79" transform="matrix(-0.95, -0.3, 0.3, -0.95, 664.5, 331.1)" style="fill:#fff"></rect><rect x="333.97" y="118.38" width="44.28" height="1.79" transform="matrix(-0.95, -0.3, 0.3, -0.95, 660.59, 339.14)" style="fill:#fff"></rect><rect x="332.63" y="122.7" width="44.28" height="1.79" transform="translate(656.67 347.18) rotate(-162.69)" style="fill:#fff"></rect><rect x="331.28" y="127.02" width="44.28" height="1.79" transform="translate(652.75 355.22) rotate(-162.69)" style="fill:#fff"></rect><rect x="329.94" y="131.34" width="44.28" height="1.79" transform="translate(648.84 363.26) rotate(-162.68)" style="fill:#fff"></rect><rect x="328.59" y="135.65" width="44.28" height="1.79" transform="translate(644.92 371.29) rotate(-162.68)" style="fill:#fff"></rect></g><g id="freepik--Character--inject-85"><path d="M90.73,450.72l194,.83c47.14-37,52-91.86,18.38-125.1-20.36-20.11-46.21-16.05-70.82-19.25h-.07c-8.57-1.12-17-3.12-25-7.33-25.34-13.37-39.63-44.9-60.95-71.43-2.66-3.33-5.43-6.56-8.35-9.68-17.53-18.72-52.42-19.33-70.68,7C20.87,292.61,42.11,392.15,90.73,450.72Z" style="fill:#E01656"></path><path d="M90.73,450.72l194,.83c47.14-37,52-91.86,18.38-125.1-20.36-20.11-46.21-16.05-70.82-19.25h-.07c-8.57-1.12-17-3.12-25-7.33-25.34-13.37-39.63-44.9-60.95-71.43-2.66-3.33-5.43-6.56-8.35-9.68-17.53-18.72-52.42-19.33-70.68,7C20.87,292.61,42.11,392.15,90.73,450.72Z" style="opacity:0.2"></path><path d="M86.43,297.71c5.08,79.58,97,109.28,154.37,85.44,49.91-20.73,33.57-68-8.55-75.95h-.07c-8.57-1.12-17-3.12-25-7.33-25.34-13.37-39.63-44.9-60.95-71.43C114.51,211.93,82.7,239.45,86.43,297.71Z" style="opacity:0.1"></path><path d="M433.05,460.89c-3.77.13-97.78-27.95-100.82-31.4-1.8-2,2.49-13.92,3.82-25.59.2-1.84-31.32-47.66-31.32-47.66l59.57-14.15L400.08,415s30.78,26.75,33.71,30.91S436.81,460.76,433.05,460.89Z" style="fill:#c95f50"></path><path d="M433,460.89c-3.75.13-97.77-27.95-100.81-31.39-1.8-2.05,2.5-13.93,3.82-25.6.05-.49-2.17-4.14-5.45-9.21l61,3.09L400.08,415s30.77,26.75,33.71,30.9S436.81,460.76,433,460.89Z" style="fill:#ebebeb"></path><path d="M435,461.45c-3.73.16-101.38-27.81-104.43-31.23-1.17-1.29,1.05-9,5.47-26.32l64,11.06s32.6,27.43,35.54,31.54S438.75,461.28,435,461.45Z" style="fill:#E01656"></path><path d="M434.73,457.14c-16.25-5.09-82.29-24.09-98.74-27.89-.14,0-.16.06,0,.1,16,5.4,82.19,23.87,98.7,28.06C435,457.5,435.08,457.25,434.73,457.14Z" style="fill:#263238"></path><path d="M430.35,441.19a13.71,13.71,0,0,0-10.94,1.19,13.28,13.28,0,0,0-6.16,7.69c0,.1.15.16.2.06,2.77-6.14,10.21-10.1,16.84-8.73C430.42,441.42,430.48,441.23,430.35,441.19Z" style="fill:#263238"></path><path d="M406,418.41c-6.53-2-14.79-1.83-20.39,2.36-.22.16,0,.47.24.42a94.09,94.09,0,0,1,20-1.94A.43.43,0,0,0,406,418.41Z" style="fill:#263238"></path><path d="M410.46,421.83c-6.53-2-14.78-1.83-20.39,2.36-.22.16,0,.47.24.42a94.15,94.15,0,0,1,20-1.94A.43.43,0,0,0,410.46,421.83Z" style="fill:#263238"></path><path d="M415,425.25c-6.52-2-14.78-1.83-20.39,2.36-.21.16,0,.47.24.42a94.15,94.15,0,0,1,20-1.94A.43.43,0,0,0,415,425.25Z" style="fill:#263238"></path><path d="M419.45,428.67c-6.53-2-14.79-1.83-20.39,2.36-.22.16,0,.47.24.42a94,94,0,0,1,20-1.94A.43.43,0,0,0,419.45,428.67Z" style="fill:#263238"></path><path d="M344.61,414.9c-7.35-2.09-10.61,9.34-3.24,11.43S352,417,344.61,414.9Z" style="fill:#fff"></path><path d="M418.06,403c-2.53-3.7-7.48-2.21-10.34.06A35.85,35.85,0,0,0,397,418.06a.19.19,0,0,0,.15.25c0,.51.45,1.06,1,.86,5.59-1.89,11.8-3.22,16.64-6.76C417.61,410.33,420.45,406.45,418.06,403Zm-12,11.62c-2.73,1-5.49,1.86-8.17,2.95,2.1-2.92,4.07-5.93,6.47-8.65a37.89,37.89,0,0,1,3.66-3.73c2-1.76,10-5.39,8.65,1.93C415.87,411.1,409.28,413.39,406,414.57Z" style="fill:#263238"></path><path d="M380,415.83c5.45,2.51,11.8,2.57,17.66,3.3.6.08.93-.55.83-1.05a.18.18,0,0,0,.1-.27A35.73,35.73,0,0,0,385,405.21c-3.26-1.65-8.41-2.12-10.14,2C373.25,411.12,376.81,414.36,380,415.83ZM377.1,411c-2.82-6.89,5.74-4.92,8.1-3.61a38.25,38.25,0,0,1,4.33,2.93,107.73,107.73,0,0,1,8.07,7.18c-2.85-.54-5.73-.82-8.6-1.26C385.58,415.69,378.66,414.76,377.1,411Z" style="fill:#263238"></path><path d="M383,373.74l-9.42,5.39-30.4,17.39L326.6,406S297,348.8,283,333.45l0,0a22.3,22.3,0,0,0-2.57-2.44h0a12.89,12.89,0,0,0-4.56-1.08h0c-18.65-2-93.06,5.63-136.4,3.37L159.23,306,168,293.86c48.72-6.17,120.16-27.65,147.34-14.44C344.91,293.78,383,373.74,383,373.74Z" style="fill:#37474f"></path><path d="M373.39,367.28c-9.51,5.11-6.85,3.51-16.3,8.72-4.63,2.55-27.91,15.31-31.83,18.4-.09.07,0,.22.1.19,4.68-1.75,27.68-15,32.26-17.64,9.36-5.38,6.62-3.93,15.92-9.41A.15.15,0,1,0,373.39,367.28Z" style="fill:#263238"></path><path d="M343.21,396.52,326.6,406S297,348.8,283,333.45Z" style="fill:#263238"></path><path d="M332.33,398.06c-7.27-11.83-40.45-70.24-46.94-72.48-5.91-2-135.3,2.67-137,2.7-.13,0-.14.2,0,.19,13.92-.35,133.23-2.86,136.32-1.69,6.4,2.44,46,70.19,47,71.6C331.94,398.76,332.58,398.46,332.33,398.06Z" style="fill:#263238"></path><path d="M106.14,309.06s-3.28,35.52,14.93,52.94c21.8,20.84,175.68,12.95,197.62,5.55s22.18-42.94-2-50.88c-23-7.55-136.42-10-138.84-10.92s-9.6-12.08-9.6-12.08Z" style="fill:#37474f"></path><path d="M136.2,307.69c0-.17-.29-.11-.29.05a19.56,19.56,0,0,1-4.42,12.65c-3.33,3.93-8.27,6.18-12.75,8.51-.43.23-.1.9.35.76a39.8,39.8,0,0,0,7.92-3.53,19.3,19.3,0,0,0,5.92-5.05A17.11,17.11,0,0,0,136.2,307.69Z" style="fill:#263238"></path><path d="M176.85,303.55c-1-1.27-2.13-2.48-3.19-3.72-2.52-2.92-5-5.85-7.69-8.67-.25-.27-.72.12-.49.41,1.78,2.27,3.66,4.47,5.51,6.68q1.42,1.69,2.86,3.38a21.74,21.74,0,0,1,2.67,3.31c.7,1.26-.18,2.35-1.5,2.51a4.58,4.58,0,0,1-3.18-1.13c-2.07-1.54-3.72-3.78-5.45-5.68q-1.59-1.74-3.19-3.47c-1.15-1.22-2.36-2.38-3.5-3.59a.1.1,0,0,0-.15.12c1,1.33,1.93,2.73,2.93,4.07s2,2.66,3.05,4,2,2.46,3,3.65a12.34,12.34,0,0,0,3.05,2.67c1.9,1.08,5.18,1.28,6.15-1.16A3.42,3.42,0,0,0,176.85,303.55Z" style="fill:#263238"></path><path d="M315.67,367.72c-7.58.24-15.15.77-22.73,1s-15.05.39-22.58.41c-15.11,0-42,.46-57.12-.4-15.25-.86-31.7-2.18-46.86-4.08-7.26-.92-14.61-1.66-21.78-3.11A34.29,34.29,0,0,1,127.34,353c-9.92-9.38-13.9-23.31-15.63-36.65-.24-1.79-.43-3.58-.6-5.38a.09.09,0,1,0-.18,0c1,13.68,3.36,27.93,12.11,38.83a34.14,34.14,0,0,0,14.16,10.72c6.81,2.63,14.34,3.18,21.51,4.06,15.22,1.87,31.74,3.26,47,4.25s42.62.76,58.05.8,30.86-.38,46.25-1.33q2.82-.16,5.63-.43A.09.09,0,0,0,315.67,367.72Z" style="fill:#263238"></path><path d="M335.51,334.33a24.37,24.37,0,0,0-10.34-14.4c-5.5-3.66-12.05-5.28-18.53-6.14-7.32-1-14.73-1.42-22.1-2.05-15.1-1.27-42-1.64-57.15-2.7s-47.67-3.17-49.5-3.22c-.15,0-.18.26,0,.28,14.59,1.44,27.87,2.66,42.49,3.81s41.19,1.57,55.87,2.84q11,.94,21.95,1.93c6.77.62,13.74,1.22,20.13,3.76,5.47,2.17,10.41,5.72,13.25,11A26.15,26.15,0,0,1,334,346.26a29.62,29.62,0,0,1-6.87,14.34,25.25,25.25,0,0,1-13.1,8.14c-1.34.3-3,.53-4.17.79-.09,0-.19.22-.09.22,10.92.14,20.92-8,24.74-18A29.2,29.2,0,0,0,335.51,334.33Z" style="fill:#263238"></path><path d="M155.17,230.65c8.28,14.29,37.32,54.06,59.19,61,12,3.82,70.72,17.06,79.47,10.33,10.25-7.87,8.54-40.92,1-41.85-23-2.83-66.2-1.86-76.69-5.11-4.75-1.47-29-20.12-55.26-35.62C152.94,213.53,149.83,221.44,155.17,230.65Z" style="fill:#c95f50"></path><path d="M175.44,264.93l11.73-32.3s-14.36-9.61-23.06-13.8c-11.5-5.55-16.26-2.58-10.12,11.83C158.1,240.3,175.44,264.93,175.44,264.93Z" style="fill:#c7c7c7"></path><path d="M173.57,260.54c1.38-4.82,2.83-9.6,4.49-14.34.83-2.36,1.69-4.7,2.59-7s2-4.57,2.91-6.91c.05-.13.25,0,.2.08-1,2.29-1.67,4.74-2.53,7.08s-1.71,4.7-2.55,7.05c-1.67,4.71-3.35,9.42-4.91,14.16C173.72,260.76,173.53,260.67,173.57,260.54Z" style="fill:#263238"></path><path d="M182.68,245l-7.24,19.93S158.11,240.3,154,230.66c-1.9-4.45-2.75-7.81-2.7-10.16Z" style="fill:#263238"></path><path d="M104.09,323.11c.23.23,86.55-19.9,87.34-20.92,1.1-1.43-15.25-66.32-31.83-85.53-4.15-4.8-17.14-4.29-22.89.69C108.21,242,103.26,322.28,104.09,323.11Z" style="fill:#ebebeb"></path><path d="M155.23,214.09,135,219c.53-.54,1.06-1,1.6-1.5l16.22-3.88A15.12,15.12,0,0,1,155.23,214.09Zm3,1.39-25.81,6.19c-.4.46-.79.91-1.16,1.39l28-6.72A7,7,0,0,0,158.24,215.48Zm2.51,2.62-31.43,7.55c-.33.43-.63.87-.93,1.32L161.46,219C161.23,218.72,161,218.4,160.75,218.1Zm2,2.74-36,8.63c-.27.43-.54.86-.79,1.3l37.38-9C163.17,221.47,163,221.16,162.74,220.84Zm1.77,2.79-39.91,9.58-.67,1.28,41.16-9.88Zm1.63,2.83-43.43,10.42-.6,1.25,44.57-10.69C166.5,227.11,166.31,226.78,166.14,226.46Zm1.51,2.85L121,240.5c-.18.41-.35.82-.54,1.24l47.66-11.45Zm1.42,2.87-49.56,11.89c-.17.41-.33.81-.49,1.23l50.53-12.12C169.4,232.83,169.24,232.5,169.07,232.18Zm1.37,2.89-52.31,12.56c-.16.4-.31.81-.45,1.21l53.22-12.77C170.74,235.73,170.6,235.4,170.44,235.07Zm1.3,2.9-54.87,13.18c-.15.4-.29.81-.41,1.21L172.18,239C172,238.64,171.89,238.3,171.74,238Zm1.25,2.92-57.3,13.76c-.13.4-.26.79-.38,1.2L173.4,241.9C173.27,241.56,173.12,241.22,173,240.89Zm1.2,2.93-59.58,14.31-.36,1.2,60.34-14.5C174.46,244.49,174.32,244.16,174.19,243.82Zm1.16,3-61.74,14.81c-.11.41-.23.8-.34,1.2l62.47-15C175.61,247.44,175.49,247.11,175.35,246.77Zm1.12,2.94L112.67,265c-.11.39-.21.79-.31,1.19l64.49-15.5C176.73,250.38,176.6,250,176.47,249.71Zm1.09,2.95L111.8,268.45c-.09.39-.19.78-.28,1.17l66.41-15.94C177.81,253.34,177.68,253,177.56,252.66Zm1.06,3L111,271.86q-.15.58-.27,1.17L179,256.65Zm1,3-69.44,16.66c-.09.39-.17.79-.26,1.18L180,259.63C179.9,259.28,179.78,258.94,179.66,258.6Zm1,3-71.15,17.09c-.08.39-.16.77-.23,1.16L181,262.61C180.9,262.26,180.79,261.91,180.66,261.57Zm1,3L108.84,282c-.07.39-.15.78-.22,1.16L182,265.59Zm1,3L108.22,285.4c-.07.39-.15.78-.2,1.16l74.9-18C182.82,268.23,182.71,267.89,182.61,267.54Zm.93,3-75.91,18.23c-.06.38-.13.77-.18,1.15l76.4-18.34C183.75,271.22,183.64,270.88,183.54,270.52Zm.91,3L107.1,292.1c-.07.39-.13.77-.19,1.15l77.85-18.68C184.66,274.23,184.56,273.88,184.45,273.53Zm.89,3-78.75,18.89c-.06.39-.11.77-.17,1.15l79.23-19C185.54,277.23,185.44,276.89,185.34,276.54Zm.85,3-80.07,19.22c-.05.39-.11.77-.16,1.15l80.53-19.33C186.41,280.24,186.31,279.9,186.19,279.54Zm.86,3-81.37,19.53c0,.39-.09.76-.14,1.14l81.8-19.63C187.24,283.26,187.15,282.91,187.05,282.56Zm.81,3L105.29,305.4c0,.38-.09.77-.13,1.15l83-19.92C188.06,286.29,188,285.93,187.86,285.58Zm.8,3-83.73,20.11c0,.39-.07.77-.11,1.13l84.1-20.19C188.84,289.31,188.75,289,188.66,288.6Zm.76,3L104.61,312l-.09,1.14,85.15-20.45C189.6,292.34,189.51,292,189.42,291.63Zm.73,3-85.81,20.6c0,.39-.06.77-.07,1.14l86.12-20.68C190.31,295.39,190.24,295,190.15,294.67Zm.67,3.07-86.69,20.81c0,.39,0,.77-.06,1.12l87-20.88C191,298.46,190.89,298.12,190.82,297.74Zm.56,3.08L104,321.8c0,.52,0,.88,0,1.1l87.45-21A10.5,10.5,0,0,0,191.38,300.82Z" style="fill:#dbdbdb;fill-rule:evenodd"></path><path d="M155.92,231.76c-3.93.5-12.75-6.19-16.47-12.14-.25-.41.14-4.88.35-10.35.12-3.31.17-7,0-10.38l21.46,3.91A53.87,53.87,0,0,0,160,215.88a8.29,8.29,0,0,0,.22,1.38,1.19,1.19,0,0,1,.05.22C160.8,220.09,162.08,231,155.92,231.76Z" style="fill:#c95f50"></path><path d="M160.17,217.26a2.14,2.14,0,0,1,.05.23,13.84,13.84,0,0,1-2.17.24c-12.05.42-15.85-14.07-16.72-18.56l19.92,3.63a54.43,54.43,0,0,0-1.31,13.08A9.69,9.69,0,0,0,160.17,217.26Z" style="fill:#263238"></path><path d="M156.39,230.79c-3.91.54-12.75-6.06-16.5-12-.26-.41.1-4.87.27-10.32.09-3.31.11-7-.11-10.35l21.43,3.74a53.47,53.47,0,0,0-1.2,13,7.11,7.11,0,0,0,.24,1.37c0,.07,0,.14,0,.23C161.16,219.13,162.52,230,156.39,230.79Z" style="fill:#c95f50"></path><path d="M160.52,216.32c0,.06,0,.13,0,.22a13.73,13.73,0,0,1-2.17.26c-12,.51-15.89-13.91-16.8-18.37l19.88,3.47a54.06,54.06,0,0,0-1.2,13A8.51,8.51,0,0,0,160.52,216.32Z" style="fill:#263238"></path><path d="M136,175.39c-1.14,7.75,6,28.57,12,32.54,8.68,5.77,21.29,4.55,25.78-5.52,4.35-9.76-5.43-36.72-12-40.17C152.14,157.16,137.66,164,136,175.39Z" style="fill:#c95f50"></path><path d="M152.91,181.5c.57-.35,1.05-.77,1.58-1.17a3.18,3.18,0,0,0,1.38-1.5,1,1,0,0,0-.52-1.12,2.5,2.5,0,0,0-2.49.5,3.66,3.66,0,0,0-1.56,2.15A1.08,1.08,0,0,0,152.91,181.5Z" style="fill:#263238"></path><path d="M167.26,177.22c-.66.09-1.29.06-2,.09a3.19,3.19,0,0,1-2-.3,1,1,0,0,1-.3-1.19,2.5,2.5,0,0,1,2.24-1.19,3.72,3.72,0,0,1,2.57.68A1.09,1.09,0,0,1,167.26,177.22Z" style="fill:#263238"></path><path d="M159,197.65a2.27,2.27,0,0,0,1.45.47,3.89,3.89,0,0,0,1.41-.83s.1,0,.08.05a2,2,0,0,1-1.56,1.33,1.59,1.59,0,0,1-1.5-.91C158.82,197.68,158.92,197.62,159,197.65Z" style="fill:#263238"></path><path d="M159.17,193a5,5,0,0,0,3.88,1.16,6.35,6.35,0,0,0,1.76-.46,1.83,1.83,0,0,0,.32-.14,1.92,1.92,0,0,0,.29-.14.38.38,0,0,0,.19-.41h0a.84.84,0,0,0-.06-.14h0l0-.12c-.31-1.1-.93-2.73-.93-2.73.46.08,2.77.37,2.57-.19-1.74-4.63-3.67-9.78-6.37-14a.14.14,0,0,0-.25.12c1.49,4.51,3.77,8.73,5.34,13.24a9,9,0,0,0-2.49,0c-.14.09,1.25,3.12,1.35,3.62v.06c-1.76.8-3.31.67-5.47,0C159.13,192.74,159.05,192.87,159.17,193Z" style="fill:#263238"></path><path d="M164,193.3a6,6,0,0,1-1.75,2.48,2.78,2.78,0,0,1-1.53.58c-1.22,0-1.57-1-1.64-1.93a6.25,6.25,0,0,1,.09-1.52A7.76,7.76,0,0,0,164,193.3Z" style="fill:#263238"></path><path d="M162.25,195.78a2.78,2.78,0,0,1-1.53.58c-1.22,0-1.57-1-1.64-1.93A2.77,2.77,0,0,1,162.25,195.78Z" style="fill:#ff9abb"></path><path d="M157.19,184c0-.05-.09.1-.07.15.43,1.41.69,3.1-.46,3.92,0,0,0,.1,0,.08C158.2,187.45,157.83,185.22,157.19,184Z" style="fill:#263238"></path><path d="M155.52,182.82c-2.33.46-1.25,5.09.91,4.67S157.47,182.44,155.52,182.82Z" style="fill:#263238"></path><path d="M165.41,181.46c0-.06.12,0,.14.1.27,1.45.83,3.06,2.24,3.24,0,0,.06.08,0,.09C166.16,185,165.44,182.87,165.41,181.46Z" style="fill:#263238"></path><path d="M166.35,179.67c2.27-.69,3.49,3.9,1.39,4.54S164.45,180.25,166.35,179.67Z" style="fill:#263238"></path><path d="M140.88,197.15h0c1.17-.29,1.65-4.72,2.27-5s1.52-1.2,1.52-1.69-2-8-2.19-12.06,2.67-8.2,6.53-8.92,7,2.16,9.56,1.14,2.77-4,4.55-4,4.09,2.41,5.31,4.8c-2.18-4.56-4.58-8-6.68-9.16-9.63-5.07-24.67.4-26.36,11.85C134.71,178.76,137.61,189.53,140.88,197.15Z" style="fill:#263238"></path><path d="M156.76,192.79a6.36,6.36,0,1,1,4.36-9.06h0a6.36,6.36,0,0,1-4.36,9.06Zm-2.5-11.62a5.76,5.76,0,0,0-1.3.46,5.5,5.5,0,1,0,1.3-.46Z" style="fill:#E01656"></path><path d="M170.26,188.07c-2.41.4-5-1.7-5.91-4.89a7.66,7.66,0,0,1,.06-4.65,4,4,0,0,1,6.52-1.88,7.61,7.61,0,0,1,2.53,3.9c1,3.38-.29,6.71-2.8,7.43A2.88,2.88,0,0,1,170.26,188.07Zm-2.57-11.57a1.73,1.73,0,0,0-.31.07,3.41,3.41,0,0,0-2.17,2.25,6.72,6.72,0,0,0,0,4.12c.84,2.92,3.19,4.82,5.26,4.22s3-3.45,2.21-6.37a6.82,6.82,0,0,0-2.23-3.47A3.51,3.51,0,0,0,167.69,176.5Z" style="fill:#E01656"></path><path d="M161.15,184.5l-.72-.44c.65-1.08,2.41-2.83,4.42-1.76l-.4.75C162.65,182.09,161.21,184.4,161.15,184.5Z" style="fill:#E01656"></path><path d="M134.84,195.21l-.84-.13c.06-.39.62-3.86,2.32-4.76s12.73-3.52,13.2-3.63l.2.83c-3.19.76-11.77,2.89-13,3.55S135,194.26,134.84,195.21Z" style="fill:#E01656"></path><path d="M143.18,192.15s-6-6.08-8.84-3.82,2.5,11.64,6.41,12.37a3.78,3.78,0,0,0,4.66-2.86Z" style="fill:#c95f50"></path><path d="M135.93,191a.05.05,0,0,0,0,.1c2.76.6,4.52,2.76,5.9,5.08a2.09,2.09,0,0,0-3.19,0c0,.06,0,.15.1.13a2.32,2.32,0,0,1,2.67.37,11.88,11.88,0,0,1,1.56,1.83c.16.21.55,0,.42-.23l0-.06C142.86,194.87,139.52,190.71,135.93,191Z" style="fill:#263238"></path><path d="M124.73,236.7c-11.69,37.23-8.92,66.62-2.91,71,16.19,11.79,60.55-2.05,72.86-4.34,5-.93-12-40.26-17.18-38.65-12.17,3.81-29.42,10.71-30.06,10.56-1.27-.3-1.51-10.22-4.47-39.44C140.57,212.19,129.51,221.48,124.73,236.7Z" style="fill:#c95f50"></path><path d="M239.75,254.48c.57,4.94-11.74,5.31-11.74,5.31a9.17,9.17,0,0,1,4.26,4.56c1.32,3.55-3.65,7.17-3.65,7.17a11.34,11.34,0,0,1,3.72,5.53c.93,3.52-3.57,7.9-3.57,7.9a9.9,9.9,0,0,1,.21,6.93c-2.28,5.95-12,7.14-17.9,9.07-6.3,2.06-16.25,1.82-21,3.25l-14.68-37.85s21.21-17.3,32.25-19C213.81,246.44,238.88,246.92,239.75,254.48Z" style="fill:#c95f50"></path><path d="M227.89,259.66c-6.67-1.17-13.6-.74-20.29-.25a.12.12,0,0,0,0,.24c6.64-.57,13.6.63,20.26.33A.16.16,0,0,0,227.89,259.66Z" style="fill:#263238"></path><path d="M228.38,271a17.86,17.86,0,0,0-4.61.25c-1.62.2-3.24.43-4.85.69-3.24.51-6.46,1.09-9.67,1.76-.14,0-.13.26,0,.23,3.23-.5,6.46-1,9.7-1.31,1.63-.19,3.25-.35,4.88-.51a21.27,21.27,0,0,0,4.57-.66A.24.24,0,0,0,228.38,271Z" style="fill:#263238"></path><path d="M228.63,285a12.17,12.17,0,0,0-4.14.44c-1.47.26-2.94.52-4.41.76-2.94.5-5.89,1-8.85,1.38-.14,0-.12.25,0,.23,3-.38,6-.72,9-1.13l4.43-.62a11.57,11.57,0,0,0,3.95-.92A.08.08,0,0,0,228.63,285Z" style="fill:#263238"></path><path d="M147.44,275.27l7.41-2.93,7.46-2.82,7.49-2.7,3.77-1.31a35,35,0,0,1,3.9-1.16l-.19.08c4.53-3.31,9.11-6.53,13.86-9.49,2.38-1.48,4.78-2.92,7.27-4.22,1.24-.64,2.5-1.25,3.8-1.8a18.58,18.58,0,0,1,4-1.25,18.49,18.49,0,0,0-3.94,1.4c-1.26.6-2.49,1.25-3.7,1.94-2.43,1.38-4.8,2.85-7.14,4.38-4.65,3.09-9.25,6.27-13.71,9.61l-.06.05-.13,0c-1.17.25-2.49.74-3.73,1.13L170,267.48l-7.51,2.62L155,272.71Z" style="fill:#263238"></path><path d="M113.93,269l32.45-11.32s-1.63-17.2-3.87-26.58c-3-12.43-8.28-14.24-15.57-.38C122.07,240,113.93,269,113.93,269Z" style="fill:#c7c7c7"></path><path d="M116.15,264.77c4.61-2,9.23-3.88,13.95-5.58,2.35-.85,4.72-1.66,7.09-2.44s4.84-1.31,7.2-2.12c.13,0,.19.17.06.21-2.4.68-4.72,1.7-7.08,2.51s-4.73,1.64-7.08,2.49c-4.7,1.68-9.42,3.35-14.08,5.13C116.08,265,116,264.82,116.15,264.77Z" style="fill:#263238"></path><path d="M117.81,267.64c-1.26.54-2.54,1-3.82,1.54l-.35.14.1-.38c.54-2.06,1.06-4.14,1.67-6.18s1.17-4.11,1.83-6.14,1.28-4.07,2-6.08,1.43-4,2.24-6c-.56,2.06-1.15,4.11-1.75,6.16s-1.21,4.09-1.81,6.13-1.25,4.08-1.87,6.12-1.29,4.06-1.93,6.1l-.25-.24C115.18,268.41,116.49,268,117.81,267.64Z" style="fill:#263238"></path><path d="M119.26,248.52c-.06,1-.21,2-.35,2.94s-.34,1.94-.6,2.89c.06-1,.21-2,.35-2.93S119,249.48,119.26,248.52Z" style="fill:#263238"></path><path d="M142.42,259.06c.33-.18,3.62-1.46,3.89-1.48-.25-2-.51-4-.73-6-.11-1-.21-2-.28-3s-.25-2.38-.32-3.37a.11.11,0,1,1,.21,0c.22,1.28.35,2.23.54,3.34s.32,2,.44,3c.26,2.1.64,4.32.8,6.43a32.94,32.94,0,0,1-4.51,1.35C142.4,259.19,142.37,259.09,142.42,259.06Z" style="fill:#263238"></path><path d="M146.51,246.72a12.55,12.55,0,0,1-.12,1.84,11.25,11.25,0,0,1-.36,1.8,13.92,13.92,0,0,1,.48-3.64Z" style="fill:#263238"></path><rect x="223.47" y="261.55" width="4.01" height="89.4" transform="translate(-81.81 530.31) rotate(-89.74)" style="fill:#c7c7c7"></rect><polygon points="199.91 304.13 196.84 308.12 270.17 308.46 270.19 304.45 199.91 304.13" style="fill:#a6a6a6"></polygon><polygon points="203.72 308.15 290.85 308.55 298.37 249.41 211.25 249.01 203.72 308.15" style="fill:#c7c7c7"></polygon><path d="M245.74,278.76a5.19,5.19,0,0,0,5.19,5.32,5.41,5.41,0,0,0,5.42-5.27,5.19,5.19,0,0,0-5.19-5.33A5.43,5.43,0,0,0,245.74,278.76Z" style="fill:#fff"></path><path d="M297.64,255.13c3.26,5.09,11.34,11.05,12.43,15.4a5.14,5.14,0,0,1-2.14,5.76s4.69,1.64,5,5.75c.17,2.12-3,4.26-3,4.26s3.7,1.48,3.78,5.16c.06,2.93-3.18,4.63-3.18,4.63s2.89,3.07,2,6.08c-1.81,6.09-26.76,9.28-31.79.57-2.34-4.05,3.79-4.5,3.79-4.5s-9-1.49-9.76-6.62S282,286.4,282,286.4s-8.69-1.52-9-6.92c-.3-5.62,7.73-4.35,7.73-4.35s-6-3.05-5.29-7.24c1.21-6.9,15.4.51,20.71-1.49Z" style="fill:#c95f50"></path><path d="M310,296.44a.06.06,0,0,1,0,.12c-7.95,3.05-17.62,4-25.9,1.75-.27-.08-.27-.55,0-.53A89.48,89.48,0,0,0,310,296.44Z" style="fill:#263238"></path><path d="M310,286.34a.09.09,0,0,1,0,.17c-8.22,3.1-19.14,3.82-28.38.15-.32-.12-.47-.56-.1-.44C287.92,288.2,302.08,288.05,310,286.34Z" style="fill:#263238"></path><path d="M280.13,274.65c9,3.18,18.11,3.16,27.47,1.79.12,0,.13.15,0,.19-4.39,1.92-10.44,2.17-15.17,2A25.18,25.18,0,0,1,280,275C279.87,274.88,279.94,274.58,280.13,274.65Z" style="fill:#263238"></path></g></svg>