<svg width="1440" height="559" viewBox="0 0 1440 559" fill="none" xmlns="http://www.w3.org/2000/svg">
<g filter="url(#filter0_i_28_10)">
<rect width="1440" height="559" fill="url(#paint0_angular_28_10)"/>
</g>
<path d="M1440 296.748L1380 290.543C1320 283.87 1200 272.162 1080 284.221C960 296.749 840 334.213 720 384.205C600 433.728 480 496.949 360 515.33C240 534.414 120 508.657 60 496.598L0 484.071V559L60 559C120 559 240 559 360 559C480 559 600 559 720 559C840 559 960 559 1080 559C1200 559 1320 559 1380 559H1440V296.748Z" fill="white"/>
<defs>
<filter id="filter0_i_28_10" x="0" y="0" width="1440" height="563" filterUnits="userSpaceOnUse" color-interpolation-filters="sRGB">
<feFlood flood-opacity="0" result="BackgroundImageFix"/>
<feBlend mode="normal" in="SourceGraphic" in2="BackgroundImageFix" result="shape"/>
<feColorMatrix in="SourceAlpha" type="matrix" values="0 0 0 0 0 0 0 0 0 0 0 0 0 0 0 0 0 0 127 0" result="hardAlpha"/>
<feOffset dy="4"/>
<feGaussianBlur stdDeviation="2"/>
<feComposite in2="hardAlpha" operator="arithmetic" k2="-1" k3="1"/>
<feColorMatrix type="matrix" values="0 0 0 0 0 0 0 0 0 0 0 0 0 0 0 0 0 0 0.25 0"/>
<feBlend mode="normal" in2="shape" result="effect1_innerShadow_28_10"/>
</filter>
<radialGradient id="paint0_angular_28_10" cx="0" cy="0" r="1" gradientUnits="userSpaceOnUse" gradientTransform="translate(732 1355.99) rotate(89.493) scale(1356.04 3494.02)">
<stop offset="0.265625" stop-color="#F2C94C"/>
<stop offset="0.505208" stop-color="white"/>
<stop offset="0.65625" stop-color="#1B4DCC"/>
</radialGradient>
</defs>
</svg>
