<svg width="1440" height="280" viewBox="0 0 1440 280" fill="none" xmlns="http://www.w3.org/2000/svg">
<g filter="url(#filter0_i_28_9)">
<path d="M1440 17.7485L1380 11.5434C1320 4.87007 1200 -6.83758 1080 5.22131C960 17.7485 840 55.213 720 105.205C600 154.728 480 217.949 360 236.33C240 255.414 120 229.657 60 217.598L0 205.071V280H60C120 280 240 280 360 280C480 280 600 280 720 280C840 280 960 280 1080 280C1200 280 1320 280 1380 280H1440V17.7485Z" fill="#F0F5FF"/>
</g>
<defs>
<filter id="filter0_i_28_9" x="0" y="0" width="1440" height="284" filterUnits="userSpaceOnUse" color-interpolation-filters="sRGB">
<feFlood flood-opacity="0" result="BackgroundImageFix"/>
<feBlend mode="normal" in="SourceGraphic" in2="BackgroundImageFix" result="shape"/>
<feColorMatrix in="SourceAlpha" type="matrix" values="0 0 0 0 0 0 0 0 0 0 0 0 0 0 0 0 0 0 127 0" result="hardAlpha"/>
<feOffset dy="4"/>
<feGaussianBlur stdDeviation="2"/>
<feComposite in2="hardAlpha" operator="arithmetic" k2="-1" k3="1"/>
<feColorMatrix type="matrix" values="0 0 0 0 0 0 0 0 0 0 0 0 0 0 0 0 0 0 0.25 0"/>
<feBlend mode="normal" in2="shape" result="effect1_innerShadow_28_9"/>
</filter>
</defs>
</svg>
