<?xml version="1.0" standalone="no"?><svg xmlns="http://www.w3.org/2000/svg" viewBox="0 0 1440 320"><path fill="#f3f4f5" fill-opacity="1" d="M0,192L26.7,202.7C53.3,213,107,235,160,250.7C213.3,267,267,277,320,261.3C373.3,245,427,203,480,170.7C533.3,139,587,117,640,128C693.3,139,747,181,800,197.3C853.3,213,907,203,960,170.7C1013.3,139,1067,85,1120,74.7C1173.3,64,1227,96,1280,117.3C1333.3,139,1387,149,1413,154.7L1440,160L1440,0L1413.3,0C1386.7,0,1333,0,1280,0C1226.7,0,1173,0,1120,0C1066.7,0,1013,0,960,0C906.7,0,853,0,800,0C746.7,0,693,0,640,0C586.7,0,533,0,480,0C426.7,0,373,0,320,0C266.7,0,213,0,160,0C106.7,0,53,0,27,0L0,0Z"></path></svg>